<mxfile host="app.diagrams.net" modified="2024-02-21T15:33:04.143Z" agent="Mozilla/5.0 (Windows NT 10.0; Win64; x64) AppleWebKit/537.36 (KHTML, like Gecko) Chrome/121.0.0.0 Safari/537.36" etag="CQsYnyZymKKeoUZx0hP_" version="23.1.5" type="device">
  <diagram name="Page-1" id="avxIQxthfReCMUuskhrC">
    <mxGraphModel dx="1477" dy="637" grid="1" gridSize="10" guides="1" tooltips="1" connect="1" arrows="1" fold="1" page="1" pageScale="1" pageWidth="850" pageHeight="1100" math="0" shadow="0">
      <root>
        <mxCell id="0" />
        <mxCell id="1" parent="0" />
        <mxCell id="kBQGuDZCLMJjnouSqEg1-2" value="&lt;font style=&quot;font-size: 16px;&quot;&gt;Mahasiswa&lt;/font&gt;" style="rounded=0;whiteSpace=wrap;html=1;fillColor=#647687;strokeColor=#314354;fontColor=#ffffff;" parent="1" vertex="1">
          <mxGeometry x="200" y="370" width="120" height="50" as="geometry" />
        </mxCell>
        <mxCell id="kBQGuDZCLMJjnouSqEg1-3" value="&lt;font style=&quot;font-size: 14px;&quot;&gt;&lt;u&gt;NPM&lt;/u&gt;&lt;/font&gt;" style="ellipse;whiteSpace=wrap;html=1;" parent="1" vertex="1">
          <mxGeometry x="60" y="250" width="100" height="50" as="geometry" />
        </mxCell>
        <mxCell id="kBQGuDZCLMJjnouSqEg1-4" value="&lt;font style=&quot;font-size: 14px;&quot;&gt;Nama&lt;/font&gt;" style="ellipse;whiteSpace=wrap;html=1;" parent="1" vertex="1">
          <mxGeometry x="60" y="310" width="100" height="50" as="geometry" />
        </mxCell>
        <mxCell id="kBQGuDZCLMJjnouSqEg1-5" value="&lt;span style=&quot;font-size: 14px;&quot;&gt;Program Studi&lt;/span&gt;" style="ellipse;whiteSpace=wrap;html=1;" parent="1" vertex="1">
          <mxGeometry x="60" y="370" width="100" height="50" as="geometry" />
        </mxCell>
        <mxCell id="kBQGuDZCLMJjnouSqEg1-6" value="&lt;span style=&quot;font-size: 14px;&quot;&gt;Tanggal Lahir&lt;/span&gt;" style="ellipse;whiteSpace=wrap;html=1;" parent="1" vertex="1">
          <mxGeometry x="60" y="430" width="100" height="50" as="geometry" />
        </mxCell>
        <mxCell id="kBQGuDZCLMJjnouSqEg1-7" value="&lt;span style=&quot;font-size: 14px;&quot;&gt;Email&lt;/span&gt;" style="ellipse;whiteSpace=wrap;html=1;" parent="1" vertex="1">
          <mxGeometry x="60" y="490" width="100" height="50" as="geometry" />
        </mxCell>
        <mxCell id="kBQGuDZCLMJjnouSqEg1-8" value="" style="endArrow=none;html=1;rounded=0;exitX=0;exitY=0.5;exitDx=0;exitDy=0;entryX=1;entryY=0.5;entryDx=0;entryDy=0;" parent="1" source="kBQGuDZCLMJjnouSqEg1-2" target="kBQGuDZCLMJjnouSqEg1-3" edge="1">
          <mxGeometry width="50" height="50" relative="1" as="geometry">
            <mxPoint x="280" y="420" as="sourcePoint" />
            <mxPoint x="330" y="370" as="targetPoint" />
          </mxGeometry>
        </mxCell>
        <mxCell id="kBQGuDZCLMJjnouSqEg1-9" value="" style="endArrow=none;html=1;rounded=0;exitX=0;exitY=0.5;exitDx=0;exitDy=0;entryX=1;entryY=0.5;entryDx=0;entryDy=0;" parent="1" source="kBQGuDZCLMJjnouSqEg1-2" target="kBQGuDZCLMJjnouSqEg1-4" edge="1">
          <mxGeometry width="50" height="50" relative="1" as="geometry">
            <mxPoint x="210" y="405" as="sourcePoint" />
            <mxPoint x="190" y="285" as="targetPoint" />
          </mxGeometry>
        </mxCell>
        <mxCell id="kBQGuDZCLMJjnouSqEg1-10" value="" style="endArrow=none;html=1;rounded=0;exitX=0;exitY=0.5;exitDx=0;exitDy=0;entryX=1;entryY=0.5;entryDx=0;entryDy=0;" parent="1" source="kBQGuDZCLMJjnouSqEg1-2" target="kBQGuDZCLMJjnouSqEg1-5" edge="1">
          <mxGeometry width="50" height="50" relative="1" as="geometry">
            <mxPoint x="210" y="405" as="sourcePoint" />
            <mxPoint x="190" y="345" as="targetPoint" />
          </mxGeometry>
        </mxCell>
        <mxCell id="kBQGuDZCLMJjnouSqEg1-11" value="" style="endArrow=none;html=1;rounded=0;exitX=0;exitY=0.5;exitDx=0;exitDy=0;entryX=1;entryY=0.5;entryDx=0;entryDy=0;" parent="1" source="kBQGuDZCLMJjnouSqEg1-2" target="kBQGuDZCLMJjnouSqEg1-6" edge="1">
          <mxGeometry width="50" height="50" relative="1" as="geometry">
            <mxPoint x="210" y="405" as="sourcePoint" />
            <mxPoint x="190" y="405" as="targetPoint" />
          </mxGeometry>
        </mxCell>
        <mxCell id="kBQGuDZCLMJjnouSqEg1-12" value="" style="endArrow=none;html=1;rounded=0;entryX=1;entryY=0.5;entryDx=0;entryDy=0;exitX=0;exitY=0.5;exitDx=0;exitDy=0;" parent="1" source="kBQGuDZCLMJjnouSqEg1-2" target="kBQGuDZCLMJjnouSqEg1-7" edge="1">
          <mxGeometry width="50" height="50" relative="1" as="geometry">
            <mxPoint x="200" y="390" as="sourcePoint" />
            <mxPoint x="190" y="465" as="targetPoint" />
          </mxGeometry>
        </mxCell>
        <mxCell id="kBQGuDZCLMJjnouSqEg1-13" value="&lt;font style=&quot;font-size: 16px;&quot;&gt;Mata Kuliah&lt;/font&gt;" style="rounded=0;whiteSpace=wrap;html=1;fillColor=#647687;strokeColor=#314354;fontColor=#ffffff;" parent="1" vertex="1">
          <mxGeometry x="370" y="700" width="120" height="50" as="geometry" />
        </mxCell>
        <mxCell id="kBQGuDZCLMJjnouSqEg1-14" value="&lt;font style=&quot;font-size: 14px;&quot;&gt;&lt;u&gt;Kode Mata Kuliah&lt;/u&gt;&lt;/font&gt;" style="ellipse;whiteSpace=wrap;html=1;" parent="1" vertex="1">
          <mxGeometry x="570" y="580" width="100" height="50" as="geometry" />
        </mxCell>
        <mxCell id="kBQGuDZCLMJjnouSqEg1-15" value="&lt;font style=&quot;font-size: 14px;&quot;&gt;Nama Mata Kuliah&lt;/font&gt;" style="ellipse;whiteSpace=wrap;html=1;" parent="1" vertex="1">
          <mxGeometry x="570" y="660" width="100" height="50" as="geometry" />
        </mxCell>
        <mxCell id="kBQGuDZCLMJjnouSqEg1-16" value="&lt;span style=&quot;font-size: 14px;&quot;&gt;Dosen Pengampu&lt;/span&gt;" style="ellipse;whiteSpace=wrap;html=1;" parent="1" vertex="1">
          <mxGeometry x="220" y="700" width="100" height="50" as="geometry" />
        </mxCell>
        <mxCell id="kBQGuDZCLMJjnouSqEg1-17" value="&lt;span style=&quot;font-size: 14px;&quot;&gt;Jumlah SKS&lt;/span&gt;" style="ellipse;whiteSpace=wrap;html=1;" parent="1" vertex="1">
          <mxGeometry x="210" y="600" width="100" height="50" as="geometry" />
        </mxCell>
        <mxCell id="kBQGuDZCLMJjnouSqEg1-19" value="" style="endArrow=none;html=1;rounded=0;exitX=1;exitY=0.5;exitDx=0;exitDy=0;entryX=0;entryY=0.5;entryDx=0;entryDy=0;" parent="1" source="kBQGuDZCLMJjnouSqEg1-13" target="kBQGuDZCLMJjnouSqEg1-14" edge="1">
          <mxGeometry width="50" height="50" relative="1" as="geometry">
            <mxPoint x="620" y="830" as="sourcePoint" />
            <mxPoint x="670" y="780" as="targetPoint" />
          </mxGeometry>
        </mxCell>
        <mxCell id="kBQGuDZCLMJjnouSqEg1-20" value="" style="endArrow=none;html=1;rounded=0;exitX=1;exitY=0.5;exitDx=0;exitDy=0;entryX=0;entryY=0.5;entryDx=0;entryDy=0;" parent="1" source="kBQGuDZCLMJjnouSqEg1-13" target="kBQGuDZCLMJjnouSqEg1-15" edge="1">
          <mxGeometry width="50" height="50" relative="1" as="geometry">
            <mxPoint x="550" y="815" as="sourcePoint" />
            <mxPoint x="530" y="695" as="targetPoint" />
          </mxGeometry>
        </mxCell>
        <mxCell id="kBQGuDZCLMJjnouSqEg1-22" value="" style="endArrow=none;html=1;rounded=0;exitX=0;exitY=0.5;exitDx=0;exitDy=0;entryX=1;entryY=0.5;entryDx=0;entryDy=0;" parent="1" source="kBQGuDZCLMJjnouSqEg1-13" target="kBQGuDZCLMJjnouSqEg1-17" edge="1">
          <mxGeometry width="50" height="50" relative="1" as="geometry">
            <mxPoint x="550" y="815" as="sourcePoint" />
            <mxPoint x="530" y="815" as="targetPoint" />
          </mxGeometry>
        </mxCell>
        <mxCell id="kBQGuDZCLMJjnouSqEg1-24" value="mengambil" style="rhombus;whiteSpace=wrap;html=1;" parent="1" vertex="1">
          <mxGeometry x="375" y="540" width="110" height="50" as="geometry" />
        </mxCell>
        <mxCell id="kBQGuDZCLMJjnouSqEg1-36" value="" style="endArrow=none;html=1;rounded=0;exitX=0.5;exitY=1;exitDx=0;exitDy=0;entryX=0;entryY=0.5;entryDx=0;entryDy=0;" parent="1" source="kBQGuDZCLMJjnouSqEg1-2" target="kBQGuDZCLMJjnouSqEg1-24" edge="1">
          <mxGeometry width="50" height="50" relative="1" as="geometry">
            <mxPoint x="400" y="370" as="sourcePoint" />
            <mxPoint x="450" y="320" as="targetPoint" />
          </mxGeometry>
        </mxCell>
        <mxCell id="kBQGuDZCLMJjnouSqEg1-37" value="" style="endArrow=none;html=1;rounded=0;entryX=0.5;entryY=0;entryDx=0;entryDy=0;exitX=0.5;exitY=1;exitDx=0;exitDy=0;" parent="1" source="kBQGuDZCLMJjnouSqEg1-24" target="kBQGuDZCLMJjnouSqEg1-13" edge="1">
          <mxGeometry width="50" height="50" relative="1" as="geometry">
            <mxPoint x="490" y="395" as="sourcePoint" />
            <mxPoint x="435" y="620" as="targetPoint" />
          </mxGeometry>
        </mxCell>
        <mxCell id="kBQGuDZCLMJjnouSqEg1-38" value="membayar" style="rhombus;whiteSpace=wrap;html=1;" parent="1" vertex="1">
          <mxGeometry x="390" y="370" width="110" height="50" as="geometry" />
        </mxCell>
        <mxCell id="kBQGuDZCLMJjnouSqEg1-39" value="&lt;font style=&quot;font-size: 16px;&quot;&gt;UKT&lt;/font&gt;" style="rounded=0;whiteSpace=wrap;html=1;fillColor=#647687;strokeColor=#314354;fontColor=#ffffff;" parent="1" vertex="1">
          <mxGeometry x="540" y="370" width="120" height="50" as="geometry" />
        </mxCell>
        <mxCell id="kBQGuDZCLMJjnouSqEg1-40" value="&lt;span style=&quot;font-size: 14px;&quot;&gt;&lt;u&gt;No Billing&lt;/u&gt;&lt;/span&gt;" style="ellipse;whiteSpace=wrap;html=1;" parent="1" vertex="1">
          <mxGeometry x="725" y="240" width="100" height="50" as="geometry" />
        </mxCell>
        <mxCell id="kBQGuDZCLMJjnouSqEg1-41" value="&lt;font style=&quot;font-size: 14px;&quot;&gt;Semester&lt;/font&gt;" style="ellipse;whiteSpace=wrap;html=1;" parent="1" vertex="1">
          <mxGeometry x="725" y="300" width="100" height="50" as="geometry" />
        </mxCell>
        <mxCell id="kBQGuDZCLMJjnouSqEg1-42" value="&lt;span style=&quot;font-size: 14px;&quot;&gt;Tanggal Pembayaran&lt;/span&gt;" style="ellipse;whiteSpace=wrap;html=1;" parent="1" vertex="1">
          <mxGeometry x="725" y="360" width="100" height="50" as="geometry" />
        </mxCell>
        <mxCell id="kBQGuDZCLMJjnouSqEg1-43" value="&lt;span style=&quot;font-size: 14px;&quot;&gt;Nominal&lt;/span&gt;" style="ellipse;whiteSpace=wrap;html=1;" parent="1" vertex="1">
          <mxGeometry x="725" y="420" width="100" height="50" as="geometry" />
        </mxCell>
        <mxCell id="kBQGuDZCLMJjnouSqEg1-44" value="&lt;span style=&quot;font-size: 14px;&quot;&gt;Status&lt;/span&gt;" style="ellipse;whiteSpace=wrap;html=1;" parent="1" vertex="1">
          <mxGeometry x="725" y="480" width="100" height="50" as="geometry" />
        </mxCell>
        <mxCell id="kBQGuDZCLMJjnouSqEg1-45" value="" style="endArrow=none;html=1;rounded=0;exitX=1;exitY=0.5;exitDx=0;exitDy=0;entryX=0;entryY=0.5;entryDx=0;entryDy=0;" parent="1" source="kBQGuDZCLMJjnouSqEg1-39" target="kBQGuDZCLMJjnouSqEg1-40" edge="1">
          <mxGeometry width="50" height="50" relative="1" as="geometry">
            <mxPoint x="620" y="420" as="sourcePoint" />
            <mxPoint x="670" y="370" as="targetPoint" />
          </mxGeometry>
        </mxCell>
        <mxCell id="kBQGuDZCLMJjnouSqEg1-46" value="" style="endArrow=none;html=1;rounded=0;exitX=1;exitY=0.5;exitDx=0;exitDy=0;entryX=0;entryY=0.5;entryDx=0;entryDy=0;" parent="1" source="kBQGuDZCLMJjnouSqEg1-39" target="kBQGuDZCLMJjnouSqEg1-41" edge="1">
          <mxGeometry width="50" height="50" relative="1" as="geometry">
            <mxPoint x="550" y="405" as="sourcePoint" />
            <mxPoint x="530" y="285" as="targetPoint" />
          </mxGeometry>
        </mxCell>
        <mxCell id="kBQGuDZCLMJjnouSqEg1-47" value="" style="endArrow=none;html=1;rounded=0;exitX=1;exitY=0.5;exitDx=0;exitDy=0;entryX=0;entryY=0.5;entryDx=0;entryDy=0;" parent="1" source="kBQGuDZCLMJjnouSqEg1-39" target="kBQGuDZCLMJjnouSqEg1-42" edge="1">
          <mxGeometry width="50" height="50" relative="1" as="geometry">
            <mxPoint x="550" y="405" as="sourcePoint" />
            <mxPoint x="530" y="345" as="targetPoint" />
          </mxGeometry>
        </mxCell>
        <mxCell id="kBQGuDZCLMJjnouSqEg1-48" value="" style="endArrow=none;html=1;rounded=0;exitX=1;exitY=0.5;exitDx=0;exitDy=0;entryX=0;entryY=0.5;entryDx=0;entryDy=0;" parent="1" source="kBQGuDZCLMJjnouSqEg1-39" target="kBQGuDZCLMJjnouSqEg1-43" edge="1">
          <mxGeometry width="50" height="50" relative="1" as="geometry">
            <mxPoint x="550" y="405" as="sourcePoint" />
            <mxPoint x="530" y="405" as="targetPoint" />
          </mxGeometry>
        </mxCell>
        <mxCell id="kBQGuDZCLMJjnouSqEg1-49" value="" style="endArrow=none;html=1;rounded=0;entryX=0;entryY=0.5;entryDx=0;entryDy=0;exitX=1;exitY=0.5;exitDx=0;exitDy=0;" parent="1" source="kBQGuDZCLMJjnouSqEg1-39" target="kBQGuDZCLMJjnouSqEg1-44" edge="1">
          <mxGeometry width="50" height="50" relative="1" as="geometry">
            <mxPoint x="540" y="390" as="sourcePoint" />
            <mxPoint x="530" y="465" as="targetPoint" />
          </mxGeometry>
        </mxCell>
        <mxCell id="kBQGuDZCLMJjnouSqEg1-50" value="" style="endArrow=none;html=1;rounded=0;exitX=1;exitY=0.5;exitDx=0;exitDy=0;entryX=0;entryY=0.5;entryDx=0;entryDy=0;" parent="1" source="kBQGuDZCLMJjnouSqEg1-2" target="kBQGuDZCLMJjnouSqEg1-38" edge="1">
          <mxGeometry width="50" height="50" relative="1" as="geometry">
            <mxPoint x="400" y="420" as="sourcePoint" />
            <mxPoint x="450" y="370" as="targetPoint" />
          </mxGeometry>
        </mxCell>
        <mxCell id="kBQGuDZCLMJjnouSqEg1-51" value="" style="endArrow=none;html=1;rounded=0;exitX=1;exitY=0.5;exitDx=0;exitDy=0;entryX=0;entryY=0.5;entryDx=0;entryDy=0;" parent="1" source="kBQGuDZCLMJjnouSqEg1-38" target="kBQGuDZCLMJjnouSqEg1-39" edge="1">
          <mxGeometry width="50" height="50" relative="1" as="geometry">
            <mxPoint x="490" y="394.5" as="sourcePoint" />
            <mxPoint x="540" y="450" as="targetPoint" />
          </mxGeometry>
        </mxCell>
        <mxCell id="kBQGuDZCLMJjnouSqEg1-52" value="" style="endArrow=none;html=1;rounded=0;exitX=0.5;exitY=1;exitDx=0;exitDy=0;entryX=1;entryY=0.5;entryDx=0;entryDy=0;" parent="1" source="kBQGuDZCLMJjnouSqEg1-39" target="kBQGuDZCLMJjnouSqEg1-24" edge="1">
          <mxGeometry width="50" height="50" relative="1" as="geometry">
            <mxPoint x="270" y="430" as="sourcePoint" />
            <mxPoint x="360" y="635" as="targetPoint" />
          </mxGeometry>
        </mxCell>
        <mxCell id="kBQGuDZCLMJjnouSqEg1-53" value="" style="endArrow=none;html=1;rounded=0;entryX=1;entryY=0.5;entryDx=0;entryDy=0;exitX=0;exitY=0.5;exitDx=0;exitDy=0;" parent="1" source="kBQGuDZCLMJjnouSqEg1-18" target="kBQGuDZCLMJjnouSqEg1-13" edge="1">
          <mxGeometry width="50" height="50" relative="1" as="geometry">
            <mxPoint x="440" y="800" as="sourcePoint" />
            <mxPoint x="610" y="790" as="targetPoint" />
          </mxGeometry>
        </mxCell>
        <mxCell id="kBQGuDZCLMJjnouSqEg1-54" value="mengajar" style="rhombus;whiteSpace=wrap;html=1;" parent="1" vertex="1">
          <mxGeometry x="185" y="850" width="110" height="50" as="geometry" />
        </mxCell>
        <mxCell id="kBQGuDZCLMJjnouSqEg1-56" value="&lt;font style=&quot;font-size: 16px;&quot;&gt;Dosen&lt;/font&gt;" style="rounded=0;whiteSpace=wrap;html=1;fillColor=#647687;strokeColor=#314354;fontColor=#ffffff;" parent="1" vertex="1">
          <mxGeometry x="180" y="950" width="120" height="50" as="geometry" />
        </mxCell>
        <mxCell id="kBQGuDZCLMJjnouSqEg1-57" value="&lt;font style=&quot;font-size: 14px;&quot;&gt;&lt;u&gt;NIP&lt;/u&gt;&lt;/font&gt;" style="ellipse;whiteSpace=wrap;html=1;" parent="1" vertex="1">
          <mxGeometry x="40" y="830" width="100" height="50" as="geometry" />
        </mxCell>
        <mxCell id="kBQGuDZCLMJjnouSqEg1-58" value="&lt;font style=&quot;font-size: 14px;&quot;&gt;Nama&lt;/font&gt;" style="ellipse;whiteSpace=wrap;html=1;" parent="1" vertex="1">
          <mxGeometry x="40" y="890" width="100" height="50" as="geometry" />
        </mxCell>
        <mxCell id="kBQGuDZCLMJjnouSqEg1-59" value="&lt;span style=&quot;font-size: 14px;&quot;&gt;Jabatan&lt;/span&gt;" style="ellipse;whiteSpace=wrap;html=1;" parent="1" vertex="1">
          <mxGeometry x="40" y="950" width="100" height="50" as="geometry" />
        </mxCell>
        <mxCell id="kBQGuDZCLMJjnouSqEg1-60" value="&lt;font style=&quot;font-size: 12px;&quot;&gt;Mata Kuliah yang Diampu&lt;/font&gt;" style="ellipse;whiteSpace=wrap;html=1;" parent="1" vertex="1">
          <mxGeometry x="40" y="1010" width="100" height="50" as="geometry" />
        </mxCell>
        <mxCell id="kBQGuDZCLMJjnouSqEg1-61" value="&lt;font style=&quot;font-size: 12px;&quot;&gt;Jumlah Mata Kuliah yang Diampu&lt;/font&gt;" style="ellipse;whiteSpace=wrap;html=1;" parent="1" vertex="1">
          <mxGeometry x="40" y="1070" width="100" height="50" as="geometry" />
        </mxCell>
        <mxCell id="kBQGuDZCLMJjnouSqEg1-62" value="" style="endArrow=none;html=1;rounded=0;exitX=0;exitY=0.5;exitDx=0;exitDy=0;entryX=1;entryY=0.5;entryDx=0;entryDy=0;" parent="1" source="kBQGuDZCLMJjnouSqEg1-56" target="kBQGuDZCLMJjnouSqEg1-57" edge="1">
          <mxGeometry width="50" height="50" relative="1" as="geometry">
            <mxPoint x="260" y="1000" as="sourcePoint" />
            <mxPoint x="310" y="950" as="targetPoint" />
          </mxGeometry>
        </mxCell>
        <mxCell id="kBQGuDZCLMJjnouSqEg1-63" value="" style="endArrow=none;html=1;rounded=0;exitX=0;exitY=0.5;exitDx=0;exitDy=0;entryX=1;entryY=0.5;entryDx=0;entryDy=0;" parent="1" source="kBQGuDZCLMJjnouSqEg1-56" target="kBQGuDZCLMJjnouSqEg1-58" edge="1">
          <mxGeometry width="50" height="50" relative="1" as="geometry">
            <mxPoint x="190" y="985" as="sourcePoint" />
            <mxPoint x="170" y="865" as="targetPoint" />
          </mxGeometry>
        </mxCell>
        <mxCell id="kBQGuDZCLMJjnouSqEg1-64" value="" style="endArrow=none;html=1;rounded=0;exitX=0;exitY=0.5;exitDx=0;exitDy=0;entryX=1;entryY=0.5;entryDx=0;entryDy=0;" parent="1" source="kBQGuDZCLMJjnouSqEg1-56" target="kBQGuDZCLMJjnouSqEg1-59" edge="1">
          <mxGeometry width="50" height="50" relative="1" as="geometry">
            <mxPoint x="190" y="985" as="sourcePoint" />
            <mxPoint x="170" y="925" as="targetPoint" />
          </mxGeometry>
        </mxCell>
        <mxCell id="kBQGuDZCLMJjnouSqEg1-65" value="" style="endArrow=none;html=1;rounded=0;exitX=0;exitY=0.5;exitDx=0;exitDy=0;entryX=1;entryY=0.5;entryDx=0;entryDy=0;" parent="1" source="kBQGuDZCLMJjnouSqEg1-56" target="kBQGuDZCLMJjnouSqEg1-60" edge="1">
          <mxGeometry width="50" height="50" relative="1" as="geometry">
            <mxPoint x="190" y="985" as="sourcePoint" />
            <mxPoint x="170" y="985" as="targetPoint" />
          </mxGeometry>
        </mxCell>
        <mxCell id="kBQGuDZCLMJjnouSqEg1-66" value="" style="endArrow=none;html=1;rounded=0;entryX=1;entryY=0.5;entryDx=0;entryDy=0;exitX=0;exitY=0.5;exitDx=0;exitDy=0;" parent="1" source="kBQGuDZCLMJjnouSqEg1-56" target="kBQGuDZCLMJjnouSqEg1-61" edge="1">
          <mxGeometry width="50" height="50" relative="1" as="geometry">
            <mxPoint x="180" y="970" as="sourcePoint" />
            <mxPoint x="170" y="1045" as="targetPoint" />
          </mxGeometry>
        </mxCell>
        <mxCell id="kBQGuDZCLMJjnouSqEg1-70" value="" style="endArrow=none;html=1;rounded=0;exitX=0.5;exitY=0;exitDx=0;exitDy=0;entryX=0.5;entryY=1;entryDx=0;entryDy=0;" parent="1" source="kBQGuDZCLMJjnouSqEg1-56" target="kBQGuDZCLMJjnouSqEg1-54" edge="1">
          <mxGeometry width="50" height="50" relative="1" as="geometry">
            <mxPoint x="260" y="700" as="sourcePoint" />
            <mxPoint x="260" y="810" as="targetPoint" />
          </mxGeometry>
        </mxCell>
        <mxCell id="kBQGuDZCLMJjnouSqEg1-71" value="" style="endArrow=none;html=1;rounded=0;entryX=0.5;entryY=1;entryDx=0;entryDy=0;exitX=0.5;exitY=0;exitDx=0;exitDy=0;" parent="1" source="kBQGuDZCLMJjnouSqEg1-54" target="kBQGuDZCLMJjnouSqEg1-13" edge="1">
          <mxGeometry width="50" height="50" relative="1" as="geometry">
            <mxPoint x="480" y="915" as="sourcePoint" />
            <mxPoint x="375" y="725" as="targetPoint" />
          </mxGeometry>
        </mxCell>
        <mxCell id="kBQGuDZCLMJjnouSqEg1-18" value="&lt;span style=&quot;font-size: 14px;&quot;&gt;Ruang Kuliah&lt;/span&gt;" style="ellipse;whiteSpace=wrap;html=1;" parent="1" vertex="1">
          <mxGeometry x="570" y="740" width="100" height="50" as="geometry" />
        </mxCell>
        <mxCell id="kBQGuDZCLMJjnouSqEg1-72" value="" style="endArrow=none;html=1;rounded=0;exitX=0;exitY=0.5;exitDx=0;exitDy=0;entryX=1;entryY=0.5;entryDx=0;entryDy=0;" parent="1" source="kBQGuDZCLMJjnouSqEg1-13" target="kBQGuDZCLMJjnouSqEg1-16" edge="1">
          <mxGeometry width="50" height="50" relative="1" as="geometry">
            <mxPoint x="385" y="735" as="sourcePoint" />
            <mxPoint x="340" y="635" as="targetPoint" />
          </mxGeometry>
        </mxCell>
        <mxCell id="kBQGuDZCLMJjnouSqEg1-73" value="&lt;font style=&quot;font-size: 16px;&quot;&gt;KHS&lt;/font&gt;" style="rounded=0;whiteSpace=wrap;html=1;fillColor=#647687;strokeColor=#314354;fontColor=#ffffff;" parent="1" vertex="1">
          <mxGeometry x="540" y="950" width="120" height="50" as="geometry" />
        </mxCell>
        <mxCell id="kBQGuDZCLMJjnouSqEg1-74" value="&lt;span style=&quot;font-size: 14px;&quot;&gt;&lt;u&gt;Semester&lt;/u&gt;&lt;/span&gt;" style="ellipse;whiteSpace=wrap;html=1;" parent="1" vertex="1">
          <mxGeometry x="725" y="820" width="100" height="50" as="geometry" />
        </mxCell>
        <mxCell id="kBQGuDZCLMJjnouSqEg1-75" value="&lt;font style=&quot;font-size: 14px;&quot;&gt;Kode Mata Kuliah&lt;/font&gt;" style="ellipse;whiteSpace=wrap;html=1;" parent="1" vertex="1">
          <mxGeometry x="725" y="880" width="100" height="50" as="geometry" />
        </mxCell>
        <mxCell id="kBQGuDZCLMJjnouSqEg1-76" value="&lt;span style=&quot;font-size: 14px;&quot;&gt;Nama Mata Kuliah&lt;/span&gt;" style="ellipse;whiteSpace=wrap;html=1;" parent="1" vertex="1">
          <mxGeometry x="725" y="940" width="100" height="50" as="geometry" />
        </mxCell>
        <mxCell id="kBQGuDZCLMJjnouSqEg1-77" value="&lt;span style=&quot;font-size: 14px;&quot;&gt;Jumlah SKS&lt;/span&gt;" style="ellipse;whiteSpace=wrap;html=1;" parent="1" vertex="1">
          <mxGeometry x="725" y="1000" width="100" height="50" as="geometry" />
        </mxCell>
        <mxCell id="kBQGuDZCLMJjnouSqEg1-78" value="&lt;span style=&quot;font-size: 14px;&quot;&gt;IPK&lt;/span&gt;" style="ellipse;whiteSpace=wrap;html=1;" parent="1" vertex="1">
          <mxGeometry x="725" y="1060" width="100" height="50" as="geometry" />
        </mxCell>
        <mxCell id="kBQGuDZCLMJjnouSqEg1-79" value="" style="endArrow=none;html=1;rounded=0;exitX=1;exitY=0.5;exitDx=0;exitDy=0;entryX=0;entryY=0.5;entryDx=0;entryDy=0;" parent="1" source="kBQGuDZCLMJjnouSqEg1-73" target="kBQGuDZCLMJjnouSqEg1-74" edge="1">
          <mxGeometry width="50" height="50" relative="1" as="geometry">
            <mxPoint x="620" y="1000" as="sourcePoint" />
            <mxPoint x="670" y="950" as="targetPoint" />
          </mxGeometry>
        </mxCell>
        <mxCell id="kBQGuDZCLMJjnouSqEg1-80" value="" style="endArrow=none;html=1;rounded=0;exitX=1;exitY=0.5;exitDx=0;exitDy=0;entryX=0;entryY=0.5;entryDx=0;entryDy=0;" parent="1" source="kBQGuDZCLMJjnouSqEg1-73" target="kBQGuDZCLMJjnouSqEg1-75" edge="1">
          <mxGeometry width="50" height="50" relative="1" as="geometry">
            <mxPoint x="550" y="985" as="sourcePoint" />
            <mxPoint x="530" y="865" as="targetPoint" />
          </mxGeometry>
        </mxCell>
        <mxCell id="kBQGuDZCLMJjnouSqEg1-81" value="" style="endArrow=none;html=1;rounded=0;exitX=1;exitY=0.5;exitDx=0;exitDy=0;entryX=0;entryY=0.5;entryDx=0;entryDy=0;" parent="1" source="kBQGuDZCLMJjnouSqEg1-73" target="kBQGuDZCLMJjnouSqEg1-76" edge="1">
          <mxGeometry width="50" height="50" relative="1" as="geometry">
            <mxPoint x="550" y="985" as="sourcePoint" />
            <mxPoint x="530" y="925" as="targetPoint" />
          </mxGeometry>
        </mxCell>
        <mxCell id="kBQGuDZCLMJjnouSqEg1-82" value="" style="endArrow=none;html=1;rounded=0;exitX=1;exitY=0.5;exitDx=0;exitDy=0;entryX=0;entryY=0.5;entryDx=0;entryDy=0;" parent="1" source="kBQGuDZCLMJjnouSqEg1-73" target="kBQGuDZCLMJjnouSqEg1-77" edge="1">
          <mxGeometry width="50" height="50" relative="1" as="geometry">
            <mxPoint x="550" y="985" as="sourcePoint" />
            <mxPoint x="530" y="985" as="targetPoint" />
          </mxGeometry>
        </mxCell>
        <mxCell id="kBQGuDZCLMJjnouSqEg1-83" value="" style="endArrow=none;html=1;rounded=0;entryX=0;entryY=0.5;entryDx=0;entryDy=0;exitX=1;exitY=0.5;exitDx=0;exitDy=0;" parent="1" source="kBQGuDZCLMJjnouSqEg1-73" target="kBQGuDZCLMJjnouSqEg1-78" edge="1">
          <mxGeometry width="50" height="50" relative="1" as="geometry">
            <mxPoint x="540" y="970" as="sourcePoint" />
            <mxPoint x="530" y="1045" as="targetPoint" />
          </mxGeometry>
        </mxCell>
        <mxCell id="kBQGuDZCLMJjnouSqEg1-85" value="memiliki" style="rhombus;whiteSpace=wrap;html=1;" parent="1" vertex="1">
          <mxGeometry x="545" y="850" width="110" height="50" as="geometry" />
        </mxCell>
        <mxCell id="kBQGuDZCLMJjnouSqEg1-86" value="" style="endArrow=none;html=1;rounded=0;entryX=0.5;entryY=1;entryDx=0;entryDy=0;exitX=0.5;exitY=0;exitDx=0;exitDy=0;" parent="1" source="kBQGuDZCLMJjnouSqEg1-85" target="kBQGuDZCLMJjnouSqEg1-13" edge="1">
          <mxGeometry width="50" height="50" relative="1" as="geometry">
            <mxPoint x="260" y="820" as="sourcePoint" />
            <mxPoint x="445" y="760" as="targetPoint" />
          </mxGeometry>
        </mxCell>
        <mxCell id="kBQGuDZCLMJjnouSqEg1-87" value="" style="endArrow=none;html=1;rounded=0;entryX=0.5;entryY=0;entryDx=0;entryDy=0;exitX=0.5;exitY=1;exitDx=0;exitDy=0;" parent="1" source="kBQGuDZCLMJjnouSqEg1-85" target="kBQGuDZCLMJjnouSqEg1-73" edge="1">
          <mxGeometry width="50" height="50" relative="1" as="geometry">
            <mxPoint x="585" y="830" as="sourcePoint" />
            <mxPoint x="465" y="770" as="targetPoint" />
          </mxGeometry>
        </mxCell>
        <mxCell id="ZRKqRCdx6pDmDmfBM0JR-2" value="m" style="text;html=1;align=center;verticalAlign=middle;resizable=0;points=[];autosize=1;strokeColor=none;fillColor=none;" parent="1" vertex="1">
          <mxGeometry x="360" y="535" width="30" height="30" as="geometry" />
        </mxCell>
        <mxCell id="4FA-66MdzxvFcUvCjM2u-1" value="m" style="text;html=1;align=center;verticalAlign=middle;resizable=0;points=[];autosize=1;strokeColor=none;fillColor=none;" vertex="1" parent="1">
          <mxGeometry x="470" y="535" width="30" height="30" as="geometry" />
        </mxCell>
        <mxCell id="4FA-66MdzxvFcUvCjM2u-3" value="m" style="text;html=1;align=center;verticalAlign=middle;resizable=0;points=[];autosize=1;strokeColor=none;fillColor=none;" vertex="1" parent="1">
          <mxGeometry x="500" y="370" width="30" height="30" as="geometry" />
        </mxCell>
        <mxCell id="4FA-66MdzxvFcUvCjM2u-4" value="1" style="text;html=1;align=center;verticalAlign=middle;resizable=0;points=[];autosize=1;strokeColor=none;fillColor=none;" vertex="1" parent="1">
          <mxGeometry x="345" y="370" width="30" height="30" as="geometry" />
        </mxCell>
        <mxCell id="4FA-66MdzxvFcUvCjM2u-5" value="1" style="text;html=1;align=center;verticalAlign=middle;resizable=0;points=[];autosize=1;strokeColor=none;fillColor=none;" vertex="1" parent="1">
          <mxGeometry x="559" y="833" width="30" height="30" as="geometry" />
        </mxCell>
        <mxCell id="4FA-66MdzxvFcUvCjM2u-6" value="m" style="text;html=1;align=center;verticalAlign=middle;resizable=0;points=[];autosize=1;strokeColor=none;fillColor=none;" vertex="1" parent="1">
          <mxGeometry x="570" y="920" width="30" height="30" as="geometry" />
        </mxCell>
        <mxCell id="4FA-66MdzxvFcUvCjM2u-7" value="1" style="text;html=1;align=center;verticalAlign=middle;resizable=0;points=[];autosize=1;strokeColor=none;fillColor=none;" vertex="1" parent="1">
          <mxGeometry x="241" y="920" width="30" height="30" as="geometry" />
        </mxCell>
        <mxCell id="4FA-66MdzxvFcUvCjM2u-13" value="m" style="text;html=1;align=center;verticalAlign=middle;resizable=0;points=[];autosize=1;strokeColor=none;fillColor=none;" vertex="1" parent="1">
          <mxGeometry x="253" y="833" width="30" height="30" as="geometry" />
        </mxCell>
      </root>
    </mxGraphModel>
  </diagram>
</mxfile>
